<?xml version="1.0" standalone="no"?>
<!DOCTYPE svg PUBLIC "-//W3C//DTD SVG 20010904//EN"
 "http://www.w3.org/TR/2001/REC-SVG-20010904/DTD/svg10.dtd">
<svg version="1.0" xmlns="http://www.w3.org/2000/svg"
 width="411.000000pt" height="411.000000pt" viewBox="0 0 411.000000 411.000000"
 preserveAspectRatio="xMidYMid meet">
<metadata>
Created by potrace 1.14, written by Peter Selinger 2001-2017
</metadata>
<g transform="translate(0.000000,411.000000) scale(0.100000,-0.100000)"
fill="#000000" stroke="none">
<path d="M2012 3871 c-34 -10 -65 -19 -67 -20 -24 -8 -336 -92 -362 -97 -12
-2 -34 -9 -48 -14 -14 -5 -25 -8 -25 -5 0 2 -15 -2 -34 -10 -18 -8 -49 -17
-67 -20 -19 -3 -72 -17 -119 -31 -47 -14 -95 -27 -107 -30 -12 -2 -35 -9 -50
-15 -16 -6 -30 -10 -32 -8 -10 5 -59 -53 -63 -75 -7 -36 25 -83 69 -104 21 -9
41 -21 45 -27 4 -5 8 -7 8 -3 0 4 44 -15 97 -42 l97 -49 23 -83 c36 -126 103
-370 109 -393 3 -11 6 -26 6 -32 1 -7 5 -13 10 -13 5 0 7 -4 4 -9 -3 -5 1 -31
9 -58 55 -185 61 -249 28 -321 -9 -20 -17 -39 -18 -42 -3 -12 -91 -185 -95
-190 -7 -7 -32 -64 -30 -69 1 -2 -2 -7 -7 -10 -4 -3 -50 -89 -101 -191 -52
-102 -108 -212 -125 -245 -17 -33 -31 -62 -32 -65 0 -3 -6 -14 -12 -25 -40
-73 -63 -120 -63 -131 0 -7 -4 -14 -8 -16 -11 -4 -47 -118 -62 -192 -32 -161
-7 -357 68 -516 14 -30 29 -56 34 -58 4 -2 8 -8 8 -14 0 -27 173 -228 196
-228 4 0 15 -10 25 -22 11 -11 19 -18 19 -14 0 4 9 -2 21 -13 42 -39 234 -125
299 -133 14 -2 31 -7 39 -12 7 -5 66 -10 130 -12 114 -3 160 3 291 39 30 9
116 32 190 52 74 20 234 63 355 97 121 33 227 62 235 64 117 28 251 78 258 96
2 4 8 8 13 8 17 0 102 65 158 121 22 22 58 63 101 116 6 7 10 17 10 23 0 6 7
13 15 16 8 4 15 11 15 16 0 5 10 24 22 41 12 17 16 27 7 22 -11 -6 -10 -4 2
11 15 17 28 43 35 69 1 6 12 34 23 64 11 29 20 56 19 60 -1 3 1 20 5 36 17 69
28 243 17 250 -3 2 -7 19 -8 37 -3 44 -5 53 -25 120 -10 32 -17 59 -16 60 4 8
-95 184 -123 220 -73 92 -237 236 -262 229 -4 -1 -16 8 -28 19 -12 11 -27 20
-34 20 -7 0 -14 3 -16 8 -1 4 -46 34 -98 66 -52 33 -97 62 -100 65 -7 8 -42
30 -60 38 -8 3 -40 23 -70 42 -30 20 -67 43 -82 50 -16 8 -28 18 -28 23 0 4
-4 8 -10 8 -5 0 -54 29 -109 64 -54 36 -102 62 -105 59 -3 -4 -6 -2 -6 4 0 6
-26 26 -57 46 -32 20 -68 45 -80 56 -26 22 -62 88 -69 127 -3 15 -7 31 -10 36
-3 4 -7 16 -9 26 -1 9 -8 37 -15 62 -7 25 -14 52 -15 60 -2 8 -4 15 -5 15 -1
0 -3 7 -5 15 -8 32 -15 57 -30 110 -9 30 -18 66 -21 80 -3 14 -7 32 -9 40 -2
8 -4 15 -5 15 -1 0 -3 7 -5 15 -2 8 -13 49 -24 90 -48 172 -50 149 26 261 38
54 73 107 78 118 6 10 16 25 22 32 11 14 16 39 14 72 0 10 -12 29 -26 42 -29
30 -72 32 -163 6z m7 -1187 c17 -66 54 -135 98 -181 37 -39 155 -123 173 -123
5 0 10 -4 12 -8 2 -5 29 -24 62 -43 32 -19 72 -42 90 -53 17 -10 33 -22 34
-27 2 -5 8 -9 14 -9 5 0 29 -13 53 -30 24 -16 48 -30 53 -30 6 0 12 -3 14 -8
3 -6 91 -65 194 -127 91 -55 249 -160 252 -167 2 -5 7 -6 11 -4 4 3 22 -8 40
-24 18 -17 35 -30 38 -30 3 0 29 -25 57 -56 190 -202 221 -470 80 -681 -60
-90 -97 -119 -129 -105 -51 23 -62 61 -52 167 6 61 -12 109 -57 150 -18 16
-51 47 -74 67 -22 21 -45 46 -51 55 -5 10 -13 14 -17 10 -5 -5 -4 -11 1 -15 6
-4 16 -18 23 -32 7 -14 22 -42 33 -64 43 -82 33 -115 -63 -214 -38 -39 -68
-77 -68 -86 0 -9 -4 -16 -9 -16 -5 0 -11 -9 -14 -19 -5 -19 -7 -18 -73 6 -38
14 -77 26 -86 28 -38 8 -78 65 -78 110 0 43 55 152 96 190 28 26 77 99 99 147
54 119 15 236 -103 312 -41 27 -139 62 -192 70 -176 25 -243 118 -242 336 l0
55 -14 -35 c-32 -76 -48 -213 -31 -280 20 -83 77 -145 180 -199 120 -63 163
-120 152 -202 -4 -27 -12 -49 -18 -49 -6 0 -7 -3 -4 -7 10 -10 -56 -67 -118
-102 -30 -17 -75 -52 -100 -77 -41 -43 -47 -52 -44 -70 0 -4 -5 -10 -11 -14
-16 -10 -29 -74 -24 -126 2 -24 2 -44 0 -44 -3 0 -26 11 -53 24 -37 18 -157
60 -203 69 -19 5 -52 47 -61 79 -8 33 -6 47 16 101 15 34 31 78 37 97 14 46 4
147 -16 169 -9 10 -16 23 -16 29 0 6 -27 40 -60 74 l-60 63 34 -71 c29 -59 41
-94 47 -142 5 -33 -4 -83 -16 -96 -8 -8 -15 -18 -15 -23 0 -4 -16 -22 -37 -38
-68 -56 -115 -110 -132 -151 -35 -88 0 -185 94 -264 112 -93 144 -155 124
-237 -6 -23 -15 -43 -19 -43 -4 0 -10 -9 -13 -19 -10 -40 -118 -89 -203 -92
-181 -7 -376 148 -435 346 -22 71 -31 232 -17 285 3 8 8 31 12 50 7 33 120
264 402 820 69 135 134 271 145 303 28 81 26 216 -3 270 -5 10 -8 20 -6 22 3
3 233 71 249 74 4 1 12 -20 18 -45z"/>
<path d="M2215 1643 c-14 -13 -25 -29 -26 -36 0 -7 -2 -20 -4 -30 -2 -10 8
-30 21 -46 57 -69 156 -30 149 59 -6 68 -89 100 -140 53z"/>
</g>
</svg>
